<svg xmlns="http://www.w3.org/2000/svg" xmlns:xlink="http://www.w3.org/1999/xlink" fill="none" version="1.1" width="16" height="16" viewBox="0 0 16 16"><path d="M20.933083043945313,14.266456604003906C21.30127204394531,14.266456604003906,21.599750043945313,14.610864635253906,21.599750043945313,15.035713435253907C21.599750043945313,15.460562485253906,21.30127204394531,15.804970285253907,20.933083043945313,15.804970285253907L9.413080873945312,15.804970285253907C9.044891063945313,15.804970285253907,8.746414184565312,15.460562485253906,8.746414184565312,15.035713435253907C8.746414184565312,14.610864635253906,9.044891063945313,14.266456604003906,9.413080873945312,14.266456604003906L20.933083043945313,14.266456604003906Z" fill="#8A8A91" fill-opacity="1" transform="matrix(0,-1,-1,0,23.01311492919922,23.01311492919922)"/><path d="M2.728556837734375,9.288661207851563C2.988906357734375,9.028311669851563,3.411016347734375,9.028311669851563,3.671365977734375,9.288661207851563L8.471365977734376,14.088661147851562C8.731716177734375,14.349010447851562,8.731716177734375,14.771121047851562,8.471365977734376,15.031470347851563L3.671365977734375,19.831469047851563C3.411016347734375,20.091820047851563,2.988906357734375,20.091820047851563,2.728556837734375,19.831469047851563C2.4682072847343752,19.571120047851565,2.4682072847343752,19.149012047851564,2.728556837734375,18.888660447851564L7.056961977734375,14.560065247851561L2.728556837734375,10.231470347851563C2.481909900734375,9.984823227851562,2.468928478734375,9.592995257851562,2.689612577734375,9.331066117851563L2.728556837734375,9.288661207851563Z" fill="#8A8A91" fill-opacity="1" transform="matrix(0,1,1,0,-6.5601043701171875,6.5601043701171875)"/></svg>