<svg xmlns="http://www.w3.org/2000/svg" xmlns:xlink="http://www.w3.org/1999/xlink" fill="none" version="1.1" width="16" height="16" viewBox="0 0 16 16"><g><path d="M11.4104604546875,3.410734172265625C11.7358970546875,3.085297264265625,12.2635345546875,3.085297264265625,12.5889711546875,3.410734172265625C12.9144077546875,3.736171122265625,12.9144077546875,4.263808572265625,12.5889711546875,4.589245572265625L4.5889708546875,12.589245772265626C4.2635339546874995,12.914682372265625,3.7358964646875,12.914682372265625,3.4104595146875,12.589245772265626C3.0850226056875,12.263809172265624,3.0850226056875,11.736171772265624,3.4104595146875,11.410735172265625L11.4104604546875,3.410734172265625Z" fill="#0C0C0D" fill-opacity="1"/></g><g><path d="M3.4104595146875,3.410734172265625C3.7358964646875,3.085297264265625,4.2635339546874995,3.085297264265625,4.5889708546875,3.410734172265625L12.5889711546875,11.410735172265625C12.9144077546875,11.736171772265624,12.9144077546875,12.263809172265624,12.5889711546875,12.589245772265626C12.2635345546875,12.914682372265625,11.7358970546875,12.914682372265625,11.4104604546875,12.589245772265626L3.4104595146875,4.589245572265625C3.0850226056875,4.263808572265625,3.0850226056875,3.736171122265625,3.4104595146875,3.410734172265625Z" fill="#0C0C0D" fill-opacity="1"/></g></svg>