<svg xmlns="http://www.w3.org/2000/svg" xmlns:xlink="http://www.w3.org/1999/xlink" fill="none" version="1.1" width="16" height="16" viewBox="0 0 16 16"><g><path d="M5,8Q4.9999999,8.0984913,4.9807851,8.1950902Q4.9615703,8.291689,4.9238793,8.3826833Q4.8861883,8.4736774,4.8314693,8.5555699Q4.7767504,8.6374626,4.7071065999999995,8.7071066Q4.6374626,8.776750400000001,4.5555699,8.8314693Q4.4736774,8.8861883,4.3826833,8.9238794Q4.291689,8.9615704,4.1950902,8.9807851Q4.0984913,8.9999999,4,9Q3.90150857,8.9999999,3.80490965,8.9807851Q3.70831072,8.9615703,3.61731648,8.9238793Q3.52632231,8.8861883,3.44442973,8.8314693Q3.36253715,8.776750400000001,3.2928932,8.7071066Q3.2232492600000002,8.6374626,3.16853037,8.5555699Q3.11381148,8.4736774,3.076120459,8.3826833Q3.038429435,8.291689,3.019214718,8.1950902Q3,8.0984913,3,8Q3,7.90150857,3.019214718,7.80490965Q3.038429435,7.70831072,3.076120459,7.6173164799999995Q3.11381148,7.52632231,3.16853037,7.44442973Q3.2232492600000002,7.36253715,3.2928932,7.2928932Q3.36253715,7.22324926,3.4444297600000002,7.16853037Q3.52632231,7.11381148,3.61731648,7.076120459Q3.70831072,7.038429435,3.80490965,7.019214718Q3.90150857,7,4,7Q4.0984913,7,4.1950902,7.019214718Q4.291689,7.038429435,4.3826833,7.076120459Q4.4736774,7.11381148,4.5555699,7.16853037Q4.6374626,7.22324926,4.7071065999999995,7.2928932Q4.7767504,7.36253715,4.8314693,7.44442976Q4.8861883,7.52632231,4.9238794,7.6173164799999995Q4.9615704,7.70831072,4.9807851,7.80490965Q4.9999999,7.90150857,5,8ZM9,8Q9,8.0984913,8.9807849,8.1950902Q8.9615698,8.291689,8.9238791,8.3826833Q8.8861876,8.4736774,8.8314691,8.5555699Q8.7767506,8.6374626,8.7071066,8.7071066Q8.6374626,8.776750400000001,8.5555701,8.8314693Q8.473677200000001,8.8861883,8.382682800000001,8.9238794Q8.2916889,8.9615704,8.1950903,8.9807851Q8.0984912,8.9999999,8,9Q7.9015083,8.9999999,7.8049097,8.9807851Q7.7083101,8.9615703,7.6173162,8.9238793Q7.5263219,8.8861883,7.4444294,8.8314693Q7.3625364,8.776750400000001,7.2928929,8.7071066Q7.2232485,8.6374626,7.1685295,8.5555699Q7.113811,8.4736774,7.0761199,8.3826833Q7.0384293,8.291689,7.0192146,8.1950902Q6.999999799999999,8.0984913,7,8Q6.999999799999999,7.90150857,7.0192146,7.80490965Q7.0384293,7.70831072,7.0761199,7.6173164799999995Q7.113811,7.52632231,7.16853,7.44442973Q7.2232485,7.36253715,7.2928929,7.2928932Q7.3625364,7.22324926,7.4444294,7.16853037Q7.5263219,7.11381148,7.6173162,7.076120459Q7.7083101,7.038429435,7.8049097,7.019214718Q7.9015083,7,8,7Q8.0984912,7,8.1950898,7.019214718Q8.2916889,7.038429435,8.382682800000001,7.076120459Q8.473677200000001,7.11381148,8.5555696,7.16853037Q8.6374626,7.22324926,8.7071066,7.2928932Q8.7767506,7.36253715,8.8314691,7.44442976Q8.8861876,7.52632231,8.9238791,7.6173164799999995Q8.9615698,7.70831072,8.9807849,7.80490965Q9,7.90150857,9,8ZM13,8Q13,8.0984913,12.9807854,8.1950902Q12.9615698,8.291689,12.9238787,8.3826833Q12.8861876,8.4736774,12.8314686,8.5555699Q12.7767506,8.6374626,12.7071066,8.7071066Q12.6374626,8.776750400000001,12.5555687,8.8314693Q12.4736767,8.8861883,12.3826828,8.9238794Q12.2916889,8.9615704,12.1950893,8.9807851Q12.0984917,8.9999999,12,9Q11.9015083,8.9999999,11.8049088,8.9807851Q11.7083092,8.9615703,11.6173153,8.9238793Q11.5263214,8.8861883,11.4444284,8.8314693Q11.3625355,8.776750400000001,11.2928925,8.7071066Q11.2232475,8.6374626,11.1685286,8.5555699Q11.1138096,8.4736774,11.0761194,8.3826833Q11.0384283,8.291689,11.0192146,8.1950902Q10.999999500000001,8.0984913,11,8Q10.999999500000001,7.90150857,11.0192137,7.80490965Q11.0384283,7.70831072,11.0761194,7.6173164799999995Q11.1138096,7.52632231,11.1685286,7.44442973Q11.2232475,7.36253715,11.2928925,7.2928932Q11.3625355,7.22324926,11.4444284,7.16853037Q11.5263214,7.11381148,11.6173153,7.076120459Q11.7083092,7.038429435,11.8049088,7.019214718Q11.9015083,7,12,7Q12.0984917,7,12.1950893,7.019214718Q12.2916889,7.038429435,12.3826828,7.076120459Q12.4736767,7.11381148,12.5555696,7.16853037Q12.6374626,7.22324926,12.7071066,7.2928932Q12.7767506,7.36253715,12.8314686,7.44442976Q12.8861876,7.52632231,12.9238787,7.6173164799999995Q12.9615698,7.70831072,12.9807854,7.80490965Q13,7.90150857,13,8Z" fill="#8A8A91" fill-opacity="1"/></g></svg>