<svg xmlns="http://www.w3.org/2000/svg" xmlns:xlink="http://www.w3.org/1999/xlink" fill="none" version="1.1" width="16" height="16" viewBox="0 0 16 16"><path d="M19.44026525952148,1.7333401441574097C19.808455259521484,1.7333401441574097,20.106932259521486,2.0318169641574095,20.106932259521486,2.4000067741574096C20.106932259521486,2.7681967441574096,19.808455259521484,3.0666734441574097,19.44026525952148,3.0666734441574097L7.920263949521484,3.0666734441574097C7.552074129521484,3.0666734441574097,7.253597259521484,2.7681967441574096,7.253597259521484,2.4000067741574096C7.253597259521484,2.0318169641574095,7.552074129521484,1.7333401441574097,7.920263949521484,1.7333401441574097L19.44026525952148,1.7333401441574097Z" fill="#8A8A91" fill-opacity="1" transform="matrix(0,1,1,0,5.520257115364075,-5.520257115364075)"/><path d="M2.728800979609375,7.1009590307714845C2.989150489609375,6.8406094907714845,3.411260489609375,6.8406094907714845,3.6716100996093752,7.1009590307714845L8.471610099609375,11.900958990771485C8.731960299609375,12.161308290771483,8.731960299609375,12.583418890771483,8.471610099609375,12.843768090771484L3.6716100996093752,17.643767290771486C3.411260489609375,17.904117290771485,2.989150489609375,17.904117290771485,2.728800979609375,17.643767290771486C2.468451425609375,17.383418290771484,2.468451425609375,16.961309290771485,2.728800979609375,16.700958290771485L7.057206199609375,12.372363090771485L2.728800979609375,8.043768190771484C2.482154041609375,7.7971210507714845,2.469172619609375,7.405293080771484,2.689856719609375,7.143363940771485L2.728800979609375,7.1009590307714845Z" fill="#8A8A91" fill-opacity="1" transform="matrix(0,-1,1,0,-4.372402191162109,9.44045639038086)"/></svg>