<svg xmlns="http://www.w3.org/2000/svg" xmlns:xlink="http://www.w3.org/1999/xlink" fill="none" version="1.1" width="16.0517578125" height="16" viewBox="0 0 16.0517578125 16"><g><path d="M8.000569328125,15.333271960983277C3.950481128125,15.333271960983277,0.667236328125,12.050026960983276,0.667236328125,7.999938760983277C0.667236328125,4.033383560983276,3.816443928125,0.8023657309832763,7.750971328125,0.6707736174532763C7.914341428125,0.6653096279832764,8.078253728125,0.6989745049832764,8.229141228125,0.7618444409832763C8.737075828125,0.9734849009832764,8.737075828125,1.6930595609832764,8.229141228125,1.9047001609832763C8.078253728125,1.9675701609832763,7.918116528125,1.9983007609832764,7.754787928125,2.0048813609832763C4.555043428125,2.133801360983276,2.000569628125,4.768554960983276,2.000569628125,7.999938760983277C2.000569628125,11.313646960983275,4.686860528125,13.999936960983277,8.000569328125,13.999936960983277C11.314277328125,13.999936960983277,14.000567328125,11.313646960983275,14.000567328125,7.999938760983277C14.000567328125,7.631748460983276,14.299044328125,7.333271260983277,14.667235328125,7.333271260983277C15.035425328125,7.333271260983277,15.333902328125,7.631748460983276,15.333902328125,7.999938760983277C15.333902328125,12.050026960983276,12.050657328125,15.333271960983277,8.000569328125,15.333271960983277ZM7.333251928125,4.9992878609832765C7.333251928125,4.631098060983277,7.631728628125,4.332621360983277,7.999918928125,4.332621360983277C8.368108728125,4.332621360983277,8.666585428125,4.631098060983277,8.666585428125,4.9992878609832765L8.666585428125,5.1037242609832765C9.043413128125,5.225305760983276,9.375936528125,5.4490749609832765,9.617073028125,5.752206560983276C9.846284828125,6.040347860983276,9.798513428125,6.4597461609832765,9.510372128125,6.688957960983276C9.236638028125,6.906709860983276,8.844444228125,6.874483360983277,8.609388328125,6.623671260983277L8.573620828125,6.5822570609832765C8.454249428125,6.432196860983276,8.241903328125,6.3329465609832765,8.000244128125,6.3329465609832765C7.613724228125,6.3329465609832765,7.333577628125,6.578075160983277,7.333577628125,6.8329465609832765C7.333577628125,7.075074960983276,7.586410028125,7.308409460983277,7.943085628125,7.3311374609832765L7.991653928125,7.332674760983276L8.000192628125,7.332621360983277C9.086431528125,7.332621360983277,10.000192628125,8.132161860983278,10.000192628125,9.165954360983276C10.000192628125,9.978520160983276,9.435668928125,10.646363060983276,8.666585428125,10.894983960983277L8.666585428125,10.999939960983276C8.666585428125,11.368128960983276,8.368108728125,11.666605960983276,7.999918928125,11.666605960983276C7.631728628125,11.666605960983276,7.333251928125,11.368128960983276,7.333251928125,10.999939960983276L7.333251928125,10.894991960983276C6.966378228125,10.776502960983276,6.641425128125,10.561091160983276,6.401867828125,10.269580560983277C6.168103728125,9.985119560983277,6.209201328125,9.565015560983277,6.493662328125,9.331251860983276C6.763900328125,9.109175460983277,7.156556628125,9.135162160983276,7.395570328125,9.382205760983277L7.431992028125,9.423045860983276C7.552561328125,9.569762960983276,7.762262328125,9.665954360983276,8.000192628125,9.665954360983276C8.386712028125,9.665954360983276,8.666859128125001,9.420825760983277,8.666859128125001,9.165954360983276C8.666859128125001,8.923826960983277,8.414026228125,8.690491460983276,8.057351128125,8.667763460983277L8.008783328125,8.666226160983276L8.000244128125,8.666280060983276C6.914004828125,8.666280060983276,6.000244128125,7.866739560983277,6.000244128125,6.8329465609832765C6.000244128125,6.020592460983276,6.564474128125,5.3528849609832765,7.333251928125,5.104110960983276L7.333251928125,4.9992878609832765Z" fill-rule="evenodd" fill="#8A8A91" fill-opacity="1"/></g><g><path d="M15.758194406469727,0.8852005637739563C16.003100906469726,1.1544671637739563,16.015990706469726,1.5822291337739562,15.796864006469725,1.8681792237739563L15.758194406469727,1.9144732237739563L12.481655806469726,5.516927023773956C12.347780906469726,5.664118123773957,12.170829806469726,5.735084823773956,11.995418306469727,5.7298239237739566C11.850537506469728,5.7335675237739565,11.704335906469726,5.685263923773956,11.581861806469727,5.583535523773956L11.537761706469727,5.543537923773957L9.899492846469727,3.924261823773956C9.627614144469726,3.6555357237739563,9.605350255469727,3.1953647237739564,9.849765076469726,2.8964427237739563C10.081315906469726,2.6132530237739564,10.469144106469727,2.5763787237739564,10.740496906469726,2.8017717237739563L10.784597206469726,2.8417685237739563L11.973447106469727,4.016934023773956L14.822041006469727,0.8852005637739563C15.080552606469727,0.6009747607739563,15.499682906469726,0.6009747607739563,15.758194406469727,0.8852005637739563Z" fill="#8A8A91" fill-opacity="1"/><path d="M16.051475006469726,1.3667812937739563Q16.039756806469725,1.0461474937739563,15.832172406469727,0.8179154237739563Q15.608533406469727,0.5720312137739563,15.290118206469726,0.5720312137739563Q14.971702606469727,0.5720312037739563,14.748065906469726,0.8179130737739563L11.969612606469727,3.8725338237739564L10.853369206469726,2.7691391237739564L10.806065906469726,2.7262373237739563L10.804392506469727,2.7248474237739564Q10.567740376469727,2.5282778237739563,10.269970716469727,2.5589140237739563Q9.971461926469727,2.5896262237739562,9.772349230469727,2.8331435237739564Q9.564713696469726,3.0870841237739564,9.581135675469726,3.4265082237739564Q9.597583003469726,3.7664566237739563,9.829195636469727,3.9953838237739565L11.468991006469727,5.616168323773956L11.516292906469726,5.659070323773956L11.517967006469727,5.660460323773957Q11.729049706469727,5.835788023773956,11.995198506469727,5.829858123773956Q12.324233506469726,5.838629523773957,12.555633806469727,5.584212623773956L15.833591006469726,1.9801990237739564L15.874959906469726,1.9306736237739563L15.876238806469726,1.9290046237739562Q16.063110306469728,1.6851449237739562,16.051475006469726,1.3667812937739563ZM11.995418506469726,5.729824323773956C12.170829806469726,5.735084823773956,12.347781206469726,5.664118123773957,12.481655806469726,5.516927523773957L15.758194406469727,1.9144733237739564L15.796864506469728,1.8681794237739564C16.015990706469726,1.5822291337739562,16.003101306469727,1.1544671637739563,15.758194406469727,0.8852005737739563C15.499683406469726,0.6009747607739563,15.080553006469726,0.6009747607739563,14.822041506469727,0.8852005737739563L12.040792906469726,3.9428947237739562L11.973447106469727,4.016934223773957L11.902267006469726,3.9465733237739564L10.784597206469726,2.8417685237739563L10.740497006469727,2.8017719237739565C10.469144166469727,2.5763787237739564,10.081315936469727,2.613253223773956,9.849765096469726,2.8964429237739564C9.605350248469726,3.1953647237739564,9.627614140469726,3.6555357237739563,9.899492856469726,3.924261823773956L11.537761806469726,5.543538423773956L11.581862006469727,5.583535523773956C11.704335906469726,5.6852644237739565,11.850537506469728,5.7335675237739565,11.995418506469726,5.729824323773956Z" fill-rule="evenodd" fill="#8A8A91" fill-opacity="1"/></g></svg>