<svg xmlns="http://www.w3.org/2000/svg" xmlns:xlink="http://www.w3.org/1999/xlink" fill="none" version="1.1" width="16" height="16" viewBox="0 0 16 16"><g transform="matrix(0,1,1,0,0,0)"><g transform="matrix(0,1,-1,0,16.99981689453125,-10.33319091796875)"><path d="M16.99920654297375,16.001637343496093C16.99920654297375,15.413405999496094,17.70553106359375,15.113443763496093,18.128811883593748,15.521916063496093L20.79547858359375,18.095290633496095C21.06042198359375,18.350964033496094,21.06793598359375,18.773007133496094,20.81226158359375,19.037950233496094C20.55658798359375,19.302893133496095,20.13454508359375,19.310406433496095,19.86960198359375,19.054732833496093L18.33254008359375,17.571303833496096L18.33254008359375,27.334970333496095C18.33254008359375,27.686423333496094,18.06058098359375,27.974359333496096,17.71562743359375,27.999808333496095L17.66587329359375,28.001638333496096C17.29768341359375,28.001638333496096,16.99920654297375,27.703161333496094,16.99920654297375,27.334970333496095L16.99920654297375,16.001637343496093Z" fill="#212121" fill-opacity="1" transform="matrix(-1,0,0,-1,33.9989013671875,30.668258666992188)"/><g><path d="M19.66650390625,3.33338034418396C19.66650390625,2.74514900118396,20.37282842625,2.44518676418396,20.79610920625,2.85365906418396L23.462775906250002,5.42703365418396C23.727719306250002,5.68270705418396,23.73523330625,6.10475015418396,23.47955890625,6.36969325418396C23.22388530625,6.63463615418396,22.80184240625,6.64214945418396,22.53689930625,6.3864757541839605L20.99983740625,4.90304685418396L20.99983740625,14.66671305418396C20.99983740625,15.01816605418396,20.72787830625,15.30610205418396,20.38292479625,15.33155105418396L20.33317065625,15.33338105418396C19.964980776250002,15.33338105418396,19.66650390625,15.03490405418396,19.66650390625,14.66671305418396L19.66650390625,3.33338034418396Z" fill="#212121" fill-opacity="1"/></g></g></g></svg>