<svg xmlns="http://www.w3.org/2000/svg" xmlns:xlink="http://www.w3.org/1999/xlink" fill="none" version="1.1" width="16" height="16" viewBox="0 0 16 16"><g><path d="M8.000569328125,15.33324409955597C3.950481128125,15.33324409955597,0.667236328125,12.049999099555968,0.667236328125,7.99991139955597C0.667236328125,4.01626999955597,3.843633428125,0.7745162095559692,7.801859828125,0.6692185034059692C7.934186028125,0.6656983327559692,8.064591428125,0.6879184245559692,8.190171728125,0.7297770975559692C8.710655228125,0.9032656895559692,8.761549028125,1.6194394795559692,8.270829628125,1.8647876995559693L8.262282828124999,1.8690608995559692C8.090172328125,1.9551121995559693,7.900893728125,1.9976802995559693,7.708690128125,2.0068866995559693C4.530544328125,2.1591178995559694,2.000569628125,4.7840605995559695,2.000569628125,7.99991139955597C2.000569628125,11.313620099555969,4.686860528125,13.99990909955597,8.000569328125,13.99990909955597C11.314277328125,13.99990909955597,14.000567328125,11.313620099555969,14.000567328125,7.99991139955597C14.000567328125,7.6317210995559694,14.299044328125,7.333243999555969,14.667235328125,7.333243999555969C15.035425328125,7.333243999555969,15.333902328125,7.6317210995559694,15.333902328125,7.99991139955597C15.333902328125,12.049999099555968,12.050657328125,15.33324409955597,8.000569328125,15.33324409955597ZM7.336181628125,5.007094999555969C7.336181628125,4.638892999555969,7.634668328125,4.34040649955597,8.002869628125,4.34040649955597C8.371071828125,4.34040649955597,8.669557528125,4.638892999555969,8.669557528125,5.007094999555969L8.669557528125,5.11149899955597C9.046415328125,5.233080999555969,9.378966328125,5.45686299955597,9.620120028125,5.760016099555969C9.849339528125,6.048166899555969,9.801566128125,6.4675784995559695,9.513416328125,6.69679799955597C9.239672628125,6.9145565995559695,8.847466428125,6.882329099555969,8.612402928125,6.6315088995559694L8.576633428125,6.590093699555969C8.457258728125,6.440028299555969,8.244905428125,6.3407750995559695,8.003238628125,6.3407750995559695C7.616705928125,6.3407750995559695,7.336550228125,6.585911399555969,7.336550228125,6.84079129955597C7.336550228125,7.082926899555969,7.589390728125,7.3162689995559695,7.946078328125,7.338998399555969L7.992981928125,7.34048279955597L8.003178628125,7.340406499555969C9.089452728125,7.340406499555969,10.003243428125,8.13997279955597,10.003243428125,9.17379959955597C10.003243428125,9.98640259955597,9.438684428125,10.654275999555969,8.669557528125,10.902896099555969L8.669557528125,11.007702099555969C8.669557528125,11.375904099555969,8.371071828125,11.674391099555969,8.002869628125,11.674391099555969C7.634668328125,11.674391099555969,7.336181628125,11.375904099555969,7.336181628125,11.007702099555969L7.336181628125,10.902882099555969C6.969310328125,10.78438709955597,6.644359628125,10.56897179955597,6.404802828125,10.277461199555969C6.171030528125,9.99299059955597,6.212129628125,9.57287319955597,6.496600128125,9.339100999555969C6.766846628125,9.11701789955597,7.159515428125,9.143005499555969,7.398536728125,9.39005669955597L7.434960328125,9.430898799555969C7.555533428125,9.577620599555969,7.765241128125,9.67381489955597,8.003178628125,9.67381489955597C8.389711428125,9.67381489955597,8.669866528125,9.428678599555969,8.669866528125,9.17379959955597C8.669866528125,8.93166359955597,8.417026528125,8.698320499555969,8.060338928124999,8.67559249955597L8.013430628125,8.67410769955597L8.003238628125,8.67418399955597C6.916964028125,8.67418399955597,6.003173828125,7.874617699555969,6.003173828125,6.84079129955597C6.003173828125,6.028426299555969,6.567400928125,5.360706399555969,7.336181628125,5.111913299555969L7.336181628125,5.007094999555969Z" fill-rule="evenodd" fill="#F53D5C" fill-opacity="1"/></g><g><path d="M12.798001212500001,1.4079172637739563C12.7674614125,0.9964386537739562,12.4219401125,0.6720312237739563,12.0001953225,0.6720312237739563C11.5583675825,0.6720312237739563,11.2001953125,1.0280702137739564,11.2001953125,1.4672665637739564L11.2001953125,4.749188223773956L11.2023896074,4.808537323773956C11.2329292665,5.220015823773957,11.5784505925,5.5444234237739565,12.0001953225,5.5444234237739565C12.4420231125,5.5444234237739565,12.8001953125,5.188384823773957,12.8001953125,4.749188223773956L12.8001953125,1.4672665637739564L12.798001212500001,1.4079172637739563ZM12.798001212500001,7.388920623773957C12.7674614125,7.024649923773956,12.4219401125,6.7374609237739564,12.0001953225,6.7374609237739564C11.5583675825,6.7374609237739564,11.2001953125,7.052652623773956,11.2001953125,7.441460923773956L11.2001953125,7.7934606237739565L11.2023896074,7.846001423773957C11.2329292665,8.210271623773956,11.5784505925,8.497461123773956,12.0001953225,8.497461123773956C12.4420231125,8.497461123773956,12.8001953125,8.182269423773956,12.8001953125,7.7934606237739565L12.8001953125,7.441460923773956L12.798001212500001,7.388920623773957Z" fill-rule="evenodd" fill="#F53D5C" fill-opacity="1"/></g></svg>